# xmcd CD database file
#
# Track frame offsets:
#	150
#	49757
#	92220
#	133170
#	200512
#
# Disc length: 3082 seconds
#
# Revision: 0
# Processed by: cddbd v1.5.2PL0 Copyright (c) Steve Scherf et al.
# Submitted via: CDex 1.70beta2
#
DISCID=450c0805
DTITLE=Dave Brubeck Trio and Gerry Mulligan - Live at Berlin Philharmonie cd1
DYEAR=1970
DGENRE=Jazz
TTITLE0=1 Out of nowhere
TTITLE1=2 Mexican jumping bean
TTITLE2=3 Blessed are the poor (The sermon on the mount)
TTITLE3=4 Things ain't what they used to be
TTITLE4=5 Out of the way of the people
EXTD=YEAR: 1970
EXTT0=
EXTT1=
EXTT2=
EXTT3=
EXTT4=
PLAYORDER=
